# xmcd
# 
# Track frame offsets:
#	150
#	14349
#	32720
#	44510
#	57924
#	69541
#	86546
#	101193
#	121972
#	141480
#	156442
#	168506
#	181926
#
# Disc length: 2701 seconds
#
# Revision: 1
# Processed by: cddbd v1.4PL0 Copyright (c) Steve Scherf et al.
# Submitted via: Audio-CD-Archiv 2.10.446
#
DISCID=b80a8b0d
DTITLE=Hot String Quintet - 5AUSBLN
DYEAR=1900
DGENRE=country
TTITLE0=Words Come Easy
TTITLE1=I`ll Know You
TTITLE2=Stelling Breakdown
TTITLE3=Sound of Money
TTITLE4=Stac
TTITLE5=I Will Never Say Goodbay
TTITLE6=Swallow The Flecktons
TTITLE7=Just Before
TTITLE8=Orient Express
TTITLE9=Like Wes!
TTITLE10=Shuddle
TTITLE11=Ain`t No Time To Waste
TTITLE12=Kingston Fairies
EXTD=
EXTT0=
EXTT1=
EXTT2=
EXTT3=
EXTT4=
EXTT5=
EXTT6=
EXTT7=
EXTT8=
EXTT9=
EXTT10=
EXTT11=
EXTT12=
PLAYORDER=
